<mxfile host="app.diagrams.net" modified="2024-01-05T04:53:51.268Z" agent="Mozilla/5.0 (Windows NT 10.0; Win64; x64) AppleWebKit/537.36 (KHTML, like Gecko) Chrome/120.0.0.0 Safari/537.36" version="22.1.16" etag="werxCmml28ZSgKfmGJ9l" type="github">
  <diagram name="Страница — 1" id="ncdPTAA-ER2mKt9o7VG_">
    <mxGraphModel>
      <root>
        <mxCell id="0" />
        <mxCell id="1" parent="0" />
      </root>
    </mxGraphModel>
  </diagram>
</mxfile>
